<?xml version="1.0" standalone="no"?>
<!DOCTYPE svg PUBLIC "-//W3C//DTD SVG 20010904//EN"
 "http://www.w3.org/TR/2001/REC-SVG-20010904/DTD/svg10.dtd">
<svg version="1.0" xmlns="http://www.w3.org/2000/svg"
 width="1821.000000pt" height="675.000000pt" viewBox="0 0 1821.000000 675.000000"
 preserveAspectRatio="xMidYMid meet">
<metadata>
Created by potrace 1.16, written by Peter Selinger 2001-2019
</metadata>
<g transform="translate(0.000000,675.000000) scale(0.100000,-0.100000)"
fill="#000000" stroke="none">
<path d="M10140 5883 c-50 -18 -76 -70 -60 -119 15 -44 45 -64 95 -64 45 0 54
5 78 40 51 75 -27 174 -113 143z m90 -38 c8 -9 15 -33 15 -54 0 -79 -88 -108
-131 -44 -26 40 -21 76 15 104 29 23 74 20 101 -6z"/>
<path d="M8508 5863 l-218 -3 0 -144 c0 -160 -2 -156 70 -156 21 0 42 5 46 11
3 6 8 41 9 78 2 36 4 69 4 74 1 4 76 6 169 5 l167 -3 -3 -50 c-14 -226 -132
-348 -349 -362 l-81 -6 -4 -46 c-7 -78 -5 -81 71 -81 136 0 280 54 363 136 90
87 147 252 149 428 2 123 -1 127 -100 124 -42 -2 -174 -4 -293 -5z"/>
<path d="M8961 5861 c-8 -5 -11 -27 -9 -62 l3 -54 178 -3 c97 -1 177 1 178 5
11 125 19 119 -173 120 -91 1 -170 -2 -177 -6z"/>
<path d="M9670 5589 c0 -314 2 -327 68 -377 l35 -27 241 0 241 0 3 48 c5 77 6
77 -213 77 -241 0 -228 -9 -234 161 -2 93 0 120 10 123 8 3 111 7 229 10 118
3 216 5 218 6 7 1 0 80 -8 85 -5 3 -20 -1 -32 -9 -43 -31 -108 -15 -157 38
-23 25 -30 26 -126 26 -120 0 -133 7 -137 70 l-3 45 -67 3 -68 3 0 -282z"/>
<path d="M11024 5816 c-3 -7 -4 -35 -2 -62 l3 -49 160 -5 160 -5 3 -24 c6 -36
-45 -155 -89 -211 -53 -67 -120 -110 -209 -136 l-75 -22 -3 -56 c-4 -69 3 -73
96 -56 88 17 178 61 246 121 30 27 59 49 64 49 5 0 16 -10 25 -22 38 -59 166
-154 193 -144 10 4 14 21 14 59 0 51 -2 56 -37 83 -49 37 -68 59 -93 111 l-21
41 20 79 c10 43 21 119 23 168 l3 90 -238 3 c-196 2 -238 0 -243 -12z"/>
<path d="M9465 5781 c-3 -2 -5 -28 -5 -57 0 -118 -40 -237 -102 -304 -51 -55
-206 -110 -314 -110 -59 0 -64 -6 -64 -80 0 -35 4 -50 16 -54 40 -15 300 39
371 78 95 52 188 198 219 345 17 83 18 167 2 178 -14 8 -116 12 -123 4z"/>
<path d="M10324 5636 c-3 -7 -4 -42 -2 -77 l3 -64 306 -3 306 -2 6 62 c9 105
31 98 -314 98 -243 0 -301 -3 -305 -14z"/>
<path d="M2966 5613 l-240 -3 -34 -27 c-29 -22 -44 -26 -88 -24 -115 4 -211
-79 -229 -201 l-7 -46 -65 -17 c-112 -30 -174 -112 -175 -229 0 -77 22 -125
85 -183 68 -63 152 -79 253 -48 27 8 55 15 63 15 17 0 361 -339 361 -356 0 -7
-16 -33 -35 -58 -39 -52 -135 -202 -135 -213 0 -3 -6 -14 -13 -22 -23 -28 -88
-182 -127 -301 -32 -97 -61 -233 -72 -328 -2 -18 -23 -34 -92 -70 -49 -26 -91
-52 -93 -59 -4 -12 76 -33 125 -33 44 0 52 -16 52 -109 0 -175 56 -425 137
-611 58 -134 200 -375 233 -395 5 -3 10 -12 10 -20 0 -12 -99 -115 -304 -314
l-55 -54 -52 16 c-182 59 -350 -47 -353 -223 -2 -125 80 -221 207 -245 28 -5
37 -12 37 -27 0 -86 67 -184 142 -208 60 -19 65 -26 38 -55 -27 -29 -21 -33
60 -37 63 -3 60 3 47 -121 -9 -79 6 -96 49 -56 30 28 41 19 58 -47 6 -26 17
-49 24 -52 10 -3 17 8 37 67 4 10 14 7 39 -13 40 -30 54 -32 63 -10 4 12 16 6
52 -30 26 -26 50 -43 54 -40 4 4 7 25 7 46 l0 40 38 -4 37 -3 -1 45 c0 25 -4
85 -9 133 l-8 88 109 109 109 109 1022 0 c1106 0 1019 4 1143 -51 25 -11 59
-26 75 -33 17 -7 53 -23 80 -35 73 -33 215 -87 335 -127 98 -34 113 -36 235
-36 118 -1 136 1 198 26 111 44 191 113 228 197 11 24 26 48 32 52 7 4 331 8
721 8 l710 0 105 -62 c58 -35 114 -68 126 -75 11 -7 79 -41 150 -77 157 -79
268 -109 350 -96 121 20 217 101 275 235 l34 75 657 0 657 0 143 -96 c166
-110 339 -197 422 -213 154 -28 304 63 383 234 l35 75 667 -2 667 -3 100 -71
c166 -117 276 -186 415 -260 214 -113 542 -193 740 -180 349 23 677 165 956
413 51 45 95 87 99 93 4 6 159 10 451 10 486 0 518 3 559 52 30 35 34 105 9
143 -34 53 -70 58 -437 61 -187 1 -341 5 -343 7 -3 2 13 31 34 63 22 33 54 85
72 116 17 32 36 61 41 64 9 5 119 -23 119 -30 0 -6 -30 -79 -42 -103 -6 -13
-8 -26 -4 -30 4 -4 93 15 199 41 262 67 257 65 257 79 0 7 -44 59 -98 116 -53
58 -122 131 -153 164 -68 73 -89 73 -89 0 0 -26 -4 -54 -9 -62 -10 -16 -42 -8
-63 17 -14 15 -11 28 29 132 24 63 50 142 59 175 17 67 42 95 85 95 22 0 30
-6 35 -25 3 -13 12 -29 20 -36 11 -9 18 -4 35 25 23 39 29 42 60 23 17 -10 22
-9 39 13 19 25 19 25 48 7 55 -32 72 -20 72 54 0 33 4 40 25 45 32 8 32 19 -4
60 -18 20 -40 66 -57 121 -37 122 -72 188 -154 289 -41 52 -70 97 -70 111 0
13 16 40 35 62 46 51 84 135 97 218 36 214 -101 413 -284 413 -67 0 -113 -16
-169 -61 -36 -29 -90 -96 -114 -144 -6 -11 -23 -21 -38 -23 -22 -3 -27 1 -27
20 -3 175 -13 202 -79 213 -101 17 -131 -18 -131 -155 l0 -80 -160 0 c-131 0
-162 3 -166 15 -15 38 64 291 138 445 113 235 277 441 478 601 84 67 244 169
265 169 3 0 5 -36 5 -79 0 -44 4 -82 9 -85 5 -3 37 27 72 67 60 67 132 146
236 259 24 26 43 51 43 57 0 11 -12 15 -185 56 -60 14 -153 37 -206 51 -96 24
-139 30 -139 18 0 -4 20 -32 45 -62 25 -30 42 -59 38 -63 -4 -4 -58 -24 -120
-43 -174 -57 -334 -140 -488 -255 -98 -72 -283 -267 -318 -334 -7 -12 -23 -38
-37 -57 -94 -131 -192 -374 -242 -601 -20 -91 -23 -130 -22 -319 0 -193 3
-229 27 -347 69 -336 200 -586 427 -813 116 -116 184 -170 307 -246 37 -22 68
-45 70 -51 7 -21 -148 -242 -236 -335 l-35 -38 -978 0 -979 0 -32 23 c-18 12
-34 24 -37 27 -3 3 -29 23 -58 45 l-53 40 88 5 88 5 3 334 c1 184 -1 338 -6
343 -5 5 -22 -11 -39 -34 -49 -68 -106 -121 -164 -152 -130 -71 -363 -31 -471
81 -59 60 -62 65 -88 118 l-25 50 0 430 0 430 76 -1 c63 -1 87 -7 145 -34 85
-40 195 -147 245 -238 18 -34 38 -61 44 -59 6 2 11 123 13 338 3 335 -3 519
-18 519 -4 0 -25 -30 -46 -67 -92 -158 -241 -261 -390 -271 l-74 -5 0 379 c0
285 4 391 14 429 18 68 61 151 99 190 112 114 304 156 432 95 51 -24 205 -168
205 -192 0 -16 46 -75 53 -68 2 3 7 150 11 327 6 314 6 322 -13 333 -29 15
-1383 9 -1388 -7 -2 -6 13 -21 34 -33 43 -24 78 -69 101 -132 23 -62 28 -303
30 -1331 2 -834 -6 -1249 -28 -1416 -14 -101 -47 -157 -152 -256 -48 -45 -88
-88 -88 -94 0 -8 118 -12 410 -13 l411 -3 -38 -40 c-21 -23 -47 -53 -58 -68
l-20 -28 -763 0 -764 1 -36 22 c-21 12 -90 57 -154 99 -172 116 -245 135 -370
99 -60 -17 -159 -91 -208 -155 l-47 -60 -144 -6 c-79 -3 -423 -3 -764 -1
l-620 4 -112 60 c-62 34 -113 65 -113 69 0 5 163 10 363 11 l362 3 3 337 c1
213 -1 338 -7 338 -6 0 -23 -19 -39 -43 -43 -61 -115 -125 -175 -153 -42 -19
-68 -24 -137 -24 -232 0 -397 124 -429 320 -6 37 -11 227 -11 441 0 419 -5
389 70 389 54 0 158 -34 213 -71 68 -45 130 -112 183 -196 25 -40 50 -73 55
-73 13 0 7 842 -6 847 -6 2 -27 -25 -47 -59 -83 -144 -217 -243 -361 -267
-119 -20 -109 -59 -105 392 3 391 3 392 29 457 47 122 118 193 239 238 194 71
350 8 482 -196 23 -34 45 -61 50 -60 5 2 11 150 15 329 l6 326 -154 5 c-85 2
-540 6 -1011 7 -721 2 -859 1 -863 -11 -3 -8 -1 -45 5 -83 25 -167 22 -523 -5
-518 -23 4 -65 311 -78 558 l-2 50 -107 3 -108 3 0 29 c0 47 -37 134 -72 167
-18 18 -52 40 -76 51 l-43 19 528 7 c290 3 677 6 859 6 193 -1 341 3 356 9 37
14 77 60 84 97 8 42 -27 109 -67 130 -28 14 -254 16 -2438 18 -1323 1 -2514 0
-2645 -1z m2844 -78 c0 -5 -45 -75 -60 -92 -9 -10 -313 -13 -1458 -13 l-1448
0 -48 49 c-33 33 -44 50 -34 54 16 7 3048 9 3048 2z m297 -32 c45 -35 65 -94
57 -165 l-6 -48 46 0 c60 0 141 -32 171 -66 28 -32 50 -104 40 -133 -6 -20
-12 -21 -196 -21 -104 0 -189 -4 -189 -8 0 -4 16 -22 35 -41 40 -37 47 -66 14
-56 -17 6 -56 -28 -235 -206 l-213 -213 -76 74 c-41 41 -82 78 -90 83 -8 4
-15 14 -15 21 0 6 97 108 215 226 118 118 215 219 215 225 0 6 -16 40 -35 75
-61 113 -41 194 63 261 41 26 54 29 104 26 46 -3 65 -9 95 -34z m1911 21 c26
-18 28 -50 5 -76 -15 -17 -57 -18 -904 -18 l-888 0 -21 46 c-11 26 -20 50 -20
55 0 5 395 9 903 9 801 0 905 -2 925 -16z m-5343 -43 c47 -21 112 -89 121
-127 8 -32 -9 -92 -48 -165 l-29 -56 200 -201 c111 -110 201 -204 201 -208 0
-13 -169 -174 -182 -174 -7 0 -61 48 -120 108 -59 59 -145 145 -192 191 l-84
84 -49 -23 c-65 -31 -149 -38 -194 -15 -115 60 -146 209 -61 298 29 30 105 57
164 57 l38 0 0 66 c0 84 25 133 84 163 50 25 98 26 151 2z m3056 -132 c10 -5
21 -23 24 -41 4 -18 17 -51 29 -73 11 -22 21 -44 21 -48 0 -12 -396 -407 -409
-407 -5 0 -53 29 -106 64 -315 211 -682 315 -1060 303 -164 -6 -207 -11 -370
-48 -208 -47 -477 -173 -642 -302 -21 -16 -42 -27 -48 -25 -17 5 -370 362
-370 373 0 6 10 31 21 55 12 24 24 62 27 85 2 22 9 47 13 57 8 15 114 16 1431
16 849 1 1429 -3 1439 -9z m10042 -268 c43 -10 80 -21 84 -24 7 -8 -20 -44
-80 -106 l-52 -53 -5 32 c-8 53 -30 59 -99 25 -34 -16 -61 -32 -61 -36 0 -3
-14 -12 -32 -20 -53 -22 -203 -128 -288 -204 -91 -82 -270 -281 -270 -301 0
-4 -16 -29 -35 -55 -19 -27 -35 -53 -35 -58 0 -5 -6 -16 -13 -23 -14 -14 -107
-201 -107 -215 0 -5 -9 -24 -19 -44 -11 -20 -24 -56 -31 -80 -6 -24 -15 -53
-20 -64 -14 -31 -43 -137 -44 -163 -1 -13 -7 -27 -14 -31 -9 -5 -11 -18 -7
-37 5 -23 4 -26 -5 -14 -10 13 -11 12 -6 -3 3 -10 6 -25 6 -32 0 -7 6 -13 13
-12 56 2 302 -7 270 -10 -24 -2 -43 -8 -43 -14 0 -5 -36 -9 -80 -9 -73 0 -80
-2 -80 -20 0 -11 -4 -20 -9 -20 -14 0 -26 22 -23 43 3 17 -6 18 -110 16 l-113
-2 -3 34 c-2 19 -10 39 -19 46 -13 10 -14 27 -9 100 10 129 36 264 57 288 5 5
9 16 9 25 0 8 7 28 15 44 8 15 15 32 15 37 0 14 62 140 85 174 12 17 30 47 41
69 10 21 25 40 32 43 6 3 12 11 12 18 0 15 119 156 182 215 98 92 147 128 293
217 80 49 297 135 404 160 80 20 94 29 86 60 -7 29 2 29 108 4z m-11242 -20
c159 -25 270 -53 378 -98 86 -35 277 -129 296 -146 6 -4 44 -30 86 -57 75 -49
257 -218 338 -315 45 -54 115 -156 151 -220 40 -70 100 -194 100 -205 0 -5 9
-29 20 -53 35 -76 88 -311 77 -341 -5 -11 -19 -9 -79 11 -82 27 -279 80 -348
94 -82 17 -110 29 -110 50 0 19 -57 155 -73 174 -4 6 -23 33 -40 61 -65 104
-87 132 -164 210 -77 78 -176 164 -188 164 -3 0 -29 15 -58 33 -137 88 -309
148 -496 172 -114 15 -148 16 -235 6 -349 -41 -522 -119 -798 -360 -16 -13
-28 -28 -28 -33 0 -5 -13 -21 -30 -34 -43 -36 -124 -163 -176 -273 -25 -53
-51 -107 -57 -120 -10 -20 -27 -28 -92 -43 -96 -21 -182 -46 -290 -83 -117
-40 -124 -42 -117 -22 1 4 6 35 12 70 5 34 12 73 15 87 4 14 9 36 12 50 3 14
9 27 13 30 4 3 12 28 19 55 11 44 57 153 94 225 33 62 62 115 67 120 3 3 18
25 35 50 16 25 45 65 65 90 19 25 40 51 45 58 6 8 39 44 75 82 58 60 104 102
195 179 62 52 285 180 375 215 52 20 118 46 146 57 28 11 75 24 105 29 30 5
90 16 134 24 116 22 127 23 271 25 86 0 174 -6 255 -18z m2085 -58 c7 -3 15
-42 19 -96 18 -257 45 -429 81 -522 9 -22 15 -40 14 -40 -1 0 6 -17 16 -37 12
-27 24 -38 39 -38 19 0 26 11 43 68 12 37 27 99 33 137 14 80 15 357 1 458 -6
46 -5 67 2 67 6 0 67 2 136 5 69 2 172 2 229 -2 l104 -6 -7 -71 c-40 -430 -63
-866 -83 -1571 -4 -159 -9 -253 -11 -207 -4 106 -22 108 -22 2 l0 -80 -45 0
-45 0 0 40 0 40 -280 0 -280 0 0 -40 0 -40 -120 0 -120 0 0 -40 c0 -33 -4 -40
-19 -40 -11 0 -21 9 -25 23 -10 37 -7 57 9 57 11 0 14 10 12 40 -1 24 -7 40
-14 40 -7 0 -13 9 -13 19 0 11 -5 21 -11 23 -7 2 -14 43 -18 105 -3 56 -3 99
1 97 11 -7 22 67 11 75 -6 3 -13 131 -16 321 -4 173 -9 369 -12 435 -3 66 -7
228 -10 360 -4 217 -9 282 -30 382 -6 27 -4 32 16 36 29 6 400 6 415 0z m2102
-8 c9 -3 12 -43 12 -152 0 -81 -3 -165 -6 -186 -6 -34 -8 -36 -23 -22 -85 83
-200 135 -295 135 -73 0 -172 -23 -231 -53 -58 -29 -139 -91 -158 -121 -99
-151 -105 -182 -111 -669 l-6 -408 26 -9 c36 -14 128 -12 205 4 66 14 187 71
225 107 11 10 24 19 29 19 4 0 14 8 21 18 12 14 15 15 23 2 5 -8 8 -17 6 -20
-2 -4 -5 -71 -6 -148 -1 -126 -9 -177 -21 -140 -3 7 -15 13 -29 13 -14 0 -23
5 -21 13 1 6 -6 12 -17 12 -25 0 -47 26 -29 34 7 3 2 4 -12 3 -14 0 -59 10
-100 23 -90 30 -274 36 -289 11 -5 -8 -12 -81 -16 -163 -6 -115 -11 -148 -21
-148 -9 0 -15 -14 -16 -42 l-1 -43 -4 43 -4 42 -85 0 -84 0 0 93 c0 59 -4 87
-9 78 -16 -24 -19 16 -26 274 -10 382 -33 958 -45 1100 -12 131 -39 243 -66
265 -8 7 -14 20 -14 29 0 15 51 16 592 13 326 -1 599 -5 606 -7z m4139 8 c11
-4 13 -38 12 -178 0 -94 -4 -177 -8 -183 -4 -6 -24 5 -51 29 -25 22 -70 52
-100 67 -50 25 -65 27 -170 27 -91 0 -123 -4 -155 -18 -22 -11 -60 -28 -85
-40 -25 -11 -72 -48 -105 -81 -59 -59 -75 -88 -125 -226 -9 -25 -14 -152 -19
-437 -3 -221 -9 -405 -13 -409 -5 -4 -8 12 -8 35 0 23 -4 40 -8 37 -16 -10 -6
-81 12 -84 9 -2 16 -8 16 -13 0 -5 11 -15 25 -21 30 -14 32 -28 5 -35 -11 -3
-20 -8 -20 -12 0 -4 -6 -16 -14 -27 -15 -19 -15 -19 -30 1 -15 20 -15 20 -16
-2 0 -12 3 -23 8 -25 4 -1 4 -43 1 -93 l-6 -90 -1 83 -2 82 -30 0 c-23 0 -30
4 -30 20 0 13 -7 20 -20 20 -13 0 -20 -7 -20 -20 0 -11 5 -20 10 -20 6 0 10
-18 10 -40 l0 -40 -40 0 -40 0 0 80 c0 51 -4 80 -11 80 -7 0 -9 23 -4 73 5 55
3 81 -9 110 -20 46 -23 112 -31 592 -9 530 -16 634 -46 704 -10 24 -16 47 -13
52 6 10 1106 11 1131 2z m-5411 -45 c69 -83 81 -174 105 -793 17 -448 18
-1663 1 -1855 -15 -173 -30 -266 -47 -300 -19 -37 -95 -120 -109 -120 -9 0
-15 31 -20 107 -48 746 -62 1244 -47 1718 17 573 62 1275 81 1275 5 0 21 -15
36 -32z m-1327 -82 c24 -29 49 -1344 25 -1353 -20 -8 -73 26 -78 50 -2 12 -9
58 -16 102 -23 153 -77 328 -143 465 -42 86 -149 261 -182 296 -29 33 -45 55
-45 67 0 6 86 96 191 200 193 188 220 207 248 173z m-1609 -376 c99 -21 200
-56 285 -98 46 -22 153 -89 165 -102 3 -3 21 -17 41 -32 84 -63 174 -164 252
-285 l27 -43 -28 0 c-16 0 -77 7 -136 15 -285 40 -531 57 -821 58 -159 0 -353
-5 -430 -12 -148 -13 -476 -47 -552 -58 l-45 -6 19 34 c44 80 129 189 187 239
17 14 37 32 45 41 31 32 187 132 257 165 76 35 209 78 289 92 96 18 341 14
445 -8z m11195 -725 c32 -14 72 -61 60 -71 -40 -35 -43 -36 -68 -20 -13 9 -47
17 -76 17 -29 1 -48 5 -41 9 8 5 7 9 -4 13 -11 4 -21 -3 -31 -22 -18 -36 -50
-36 -50 0 0 17 6 25 23 27 12 2 22 10 22 18 0 8 11 20 25 26 14 6 25 14 25 18
0 8 87 -4 115 -15z m-10982 -10 c452 -34 801 -91 1061 -171 112 -36 286 -105
286 -115 0 -9 -25 -17 -200 -58 -152 -35 -334 -65 -353 -58 -10 4 -16 27 -19
71 -5 79 -25 106 -99 129 -159 52 -429 77 -899 84 -609 9 -1200 -35 -1339
-100 -46 -22 -101 -93 -101 -131 -1 -48 -11 -51 -112 -33 -192 33 -432 78
-437 82 -5 6 19 35 30 35 4 0 36 13 71 29 74 33 180 73 258 96 30 9 64 20 75
24 70 28 714 112 1000 130 174 12 521 5 778 -14z m7857 -137 c0 -18 -5 -79
-12 -135 -11 -99 -12 -101 -38 -105 -46 -7 -79 34 -57 70 6 8 1 12 -13 12 -12
0 -18 -4 -15 -10 3 -5 -3 -10 -13 -10 -11 0 -22 7 -26 15 -6 17 -46 21 -46 4
0 -7 -7 -8 -17 -4 -10 4 -36 9 -58 11 -22 2 -60 8 -85 13 l-45 9 50 2 c80 4
96 7 108 19 6 6 23 11 39 11 15 0 31 7 36 16 7 12 18 15 36 12 21 -4 30 -1 37
16 6 12 26 32 45 45 18 13 34 27 34 32 0 5 9 9 20 9 16 0 20 -7 20 -32z
m-7845 -48 c417 -18 662 -53 679 -96 11 -29 6 -199 -9 -291 -45 -276 -190
-525 -410 -702 -146 -118 -282 -183 -485 -233 -68 -17 -114 -21 -235 -20 -207
1 -343 31 -509 114 -72 36 -153 84 -166 98 -3 3 -33 27 -67 53 -35 27 -81 69
-103 95 -22 26 -51 61 -65 77 -50 59 -138 218 -170 309 -42 117 -63 218 -71
343 -7 96 -6 99 20 130 23 27 40 34 139 57 264 61 898 90 1452 66z m1412 -462
c-4 -167 -12 -375 -17 -463 -36 -593 -42 -654 -66 -690 -9 -14 -21 -24 -25
-23 -5 2 -88 81 -184 177 -175 174 -175 174 -156 195 37 41 158 240 193 316
39 87 48 108 68 160 48 123 86 297 101 455 16 176 13 170 73 174 19 1 19 -8
13 -301z m8937 246 c3 -9 6 -51 6 -93 0 -64 4 -83 21 -105 18 -22 28 -26 75
-26 85 0 100 25 107 180 l2 55 44 3 c24 2 48 -1 53 -6 6 -6 1 -34 -11 -73 -12
-35 -25 -77 -30 -94 -18 -59 -33 -210 -28 -271 8 -83 39 -154 88 -199 21 -20
39 -39 39 -43 0 -4 -18 -59 -41 -122 -22 -63 -44 -126 -49 -140 -14 -45 -59
-138 -68 -144 -12 -7 -149 130 -208 206 -111 146 -215 357 -268 543 -43 151
-68 320 -49 338 3 4 75 7 159 7 129 0 153 -2 158 -16z m-12334 -28 c80 -15
159 -31 175 -35 17 -5 47 -12 68 -16 20 -3 37 -10 37 -16 0 -5 7 -55 15 -111
12 -79 13 -103 3 -109 -9 -6 -8 -20 5 -59 20 -62 21 -83 5 -77 -8 2 -13 20
-12 40 l0 37 -82 0 -83 0 -3 -37 -3 -38 -82 -3 c-48 -2 -83 -7 -83 -13 0 -6
-4 -8 -8 -5 -5 3 -7 25 -5 50 l4 46 -35 0 c-34 0 -34 0 -29 40 5 36 4 40 -13
34 -11 -3 -15 -2 -8 3 6 4 13 27 17 50 5 40 4 42 -14 32 -16 -8 -19 -6 -21 16
-2 27 -3 45 -14 144 -6 53 -5 63 7 59 8 -3 79 -17 159 -32z m3234 -21 c-3 -79
-15 -170 -24 -185 -8 -13 -10 -12 -10 3 0 9 -5 17 -11 17 -8 0 -10 -17 -6 -55
3 -31 2 -55 -4 -55 -5 0 -9 7 -9 15 0 22 -304 22 -326 0 -8 -8 -21 -12 -29 -9
-18 7 -20 35 -3 32 6 -2 13 6 15 17 3 16 2 17 -6 5 -9 -12 -11 -9 -11 15 -1
29 -2 29 -11 7 -5 -13 -7 -28 -4 -32 3 -5 1 -11 -5 -15 -6 -4 -7 -11 -4 -17 4
-7 2 -8 -4 -4 -7 4 -12 27 -12 51 0 24 -4 45 -9 47 -5 2 -5 26 1 60 l10 56 71
12 c40 7 77 16 82 20 6 4 43 11 83 14 40 4 93 13 118 21 24 7 53 11 64 8 11
-3 20 0 20 6 0 6 6 11 13 11 8 0 12 -15 11 -45z m692 -892 c30 -134 176 -595
196 -620 8 -10 86 -13 329 -13 176 0 319 -3 319 -6 0 -4 -17 -25 -38 -48 -21
-22 -45 -52 -55 -66 -17 -24 -21 -25 -125 -24 -59 1 -267 2 -463 3 l-356 1 -6
53 c-3 28 -8 60 -12 70 -7 15 2 17 93 17 56 0 103 4 106 9 3 5 -1 106 -10 226
-11 140 -14 254 -9 321 7 102 19 131 31 77z m-1922 -220 c19 -28 23 -40 14
-50 -14 -17 -144 -57 -163 -49 -18 7 -48 77 -38 87 10 10 121 47 145 48 10 1
29 -16 42 -36z m1073 -135 c95 -95 173 -177 173 -182 0 -9 -29 -37 -64 -62
-11 -7 -17 -16 -14 -19 3 -4 106 -6 229 -6 123 1 229 -2 235 -7 7 -4 17 -26
24 -50 16 -50 2 -108 -36 -158 -28 -38 -96 -64 -166 -64 l-48 0 0 -36 0 -36
-46 7 c-25 3 -78 15 -118 25 -159 42 -176 56 -137 106 12 15 21 34 21 44 0 9
-92 107 -205 219 -113 111 -205 205 -205 210 0 13 162 181 174 181 6 0 88 -78
183 -172z m-2805 61 l89 -91 -201 -199 c-110 -109 -200 -203 -200 -209 0 -6
11 -27 24 -48 13 -20 32 -59 41 -85 23 -61 10 -110 -41 -162 -62 -64 -148 -83
-220 -49 -56 27 -78 68 -84 154 l-5 75 -66 7 c-91 9 -119 24 -158 89 -29 47
-28 132 0 179 29 47 63 75 109 89 54 16 77 14 145 -14 33 -14 65 -25 71 -25 5
0 95 85 200 189 104 104 193 190 198 190 5 1 49 -40 98 -90z m1067 50 c72 -13
81 -20 76 -58 -2 -14 -4 -35 -4 -45 -1 -18 -7 -18 -87 -12 -48 3 -91 9 -96 12
-11 7 -2 67 13 96 11 21 13 21 98 7z m449 -43 c14 -36 14 -40 -1 -51 -22 -16
-128 -28 -139 -17 -5 5 -8 29 -6 53 3 40 6 45 33 50 17 4 45 6 64 6 29 -2 35
-7 49 -41z m-193 -31 l0 -50 -70 0 c-70 0 -70 0 -73 29 -2 15 -1 39 3 53 5 23
9 24 73 21 l67 -3 0 -50z m1258 -276 c92 -94 166 -174 163 -176 -3 -3 -47 -6
-99 -6 -89 0 -98 2 -153 33 -127 71 -284 173 -284 185 0 6 17 21 38 33 20 12
57 39 82 61 25 22 54 40 65 41 13 0 79 -60 188 -171z m-2363 102 c43 -32 84
-61 92 -64 13 -5 -31 -52 -132 -141 -25 -22 -55 -48 -67 -59 -19 -16 -40 -20
-162 -23 -80 -2 -143 1 -146 6 -5 8 318 340 331 340 3 0 41 -26 84 -59z m1251
36 c81 -69 120 -110 116 -122 -6 -15 -135 -31 -147 -18 -10 11 -31 144 -24
155 9 14 28 9 55 -15z m-367 5 c5 -9 -19 -130 -28 -140 -8 -7 -167 25 -179 37
-12 12 143 111 175 111 15 0 29 -4 32 -8z m264 -5 c6 -7 13 -44 14 -83 l3 -69
-122 0 c-69 0 -127 5 -132 10 -11 11 6 117 22 143 12 17 201 17 215 -1z m-488
-157 c127 -37 188 -44 400 -45 138 0 246 5 301 14 85 14 88 13 123 -8 20 -13
36 -30 36 -40 0 -30 -146 -166 -221 -206 -242 -127 -518 -63 -738 170 l-55 58
37 33 c39 36 61 40 117 24z m10660 -430 c0 -16 -219 -110 -322 -139 -138 -38
-321 -51 -445 -31 -126 21 -425 134 -437 166 -4 10 111 12 600 11 332 -1 604
-4 604 -7z"/>
<path d="M3694 3369 c-115 -15 -217 -92 -274 -206 -31 -61 -35 -76 -35 -153 0
-75 4 -92 32 -150 17 -36 45 -80 61 -98 46 -50 135 -98 207 -112 86 -16 174 0
251 46 71 43 106 82 146 163 29 57 32 73 32 151 0 78 -3 94 -32 151 -49 100
-103 150 -198 187 -59 23 -122 30 -190 21z"/>
<path d="M4675 3358 c-89 -34 -173 -111 -214 -198 -23 -48 -26 -68 -25 -155 0
-123 21 -173 105 -256 75 -74 144 -102 254 -103 70 -1 88 3 145 30 88 42 140
90 181 166 32 60 34 68 34 163 0 87 -3 107 -27 157 -32 69 -94 133 -168 173
-49 26 -66 30 -155 32 -57 1 -113 -2 -130 -9z"/>
<path d="M4203 2670 c-68 -41 -91 -123 -53 -185 61 -98 191 -100 250 -3 73
119 -77 262 -197 188z"/>
<path d="M11844 5606 c-82 -36 -102 -136 -40 -204 l34 -37 2064 -3 c1135 -1
2077 0 2093 3 32 5 73 37 93 72 27 50 8 117 -45 153 l-37 25 -2065 2 c-1722 2
-2071 0 -2097 -11z m4150 -80 c35 -22 33 -65 -4 -83 -20 -10 -445 -13 -2061
-13 l-2036 0 -27 21 c-36 28 -31 59 14 82 33 17 129 18 2061 14 1916 -3 2028
-4 2053 -21z"/>
<path d="M9140 5069 c0 -6 17 -30 38 -54 21 -24 44 -61 51 -82 27 -83 32 -372
28 -1591 -3 -1347 0 -1270 -60 -1388 -23 -46 -102 -134 -119 -134 -5 0 -8 -7
-8 -16 0 -14 39 -16 399 -12 220 1 403 6 407 10 4 4 -13 27 -38 50 -52 48 -91
122 -110 206 -8 39 -12 148 -13 342 l0 285 116 12 c266 26 445 117 536 271 58
99 72 165 78 389 7 217 6 223 -40 399 -26 100 -26 103 -11 185 9 46 24 116 35
155 17 63 19 95 15 270 -6 238 -15 294 -64 399 -65 136 -183 239 -333 290
l-76 25 -415 0 c-295 0 -416 -3 -416 -11z m883 -83 c111 -40 201 -106 255
-189 15 -23 30 -44 33 -47 3 -3 17 -34 30 -70 l24 -65 2 -595 c2 -327 -1 -622
-6 -655 -8 -55 -9 -57 -10 -17 -1 30 -5 42 -16 42 -11 0 -15 -11 -15 -40 l0
-40 -40 0 c-33 0 -40 3 -40 20 0 17 -7 20 -40 20 -33 0 -40 -3 -40 -20 0 -15
-7 -20 -25 -20 -25 0 -25 1 -25 80 0 44 -4 80 -8 80 -13 0 -22 196 -28 605 -2
204 -7 393 -10 421 -6 61 -46 129 -98 169 -74 57 -274 106 -309 76 -12 -9 -15
-116 -21 -609 -3 -328 -9 -666 -12 -749 l-6 -153 -129 0 -129 0 -2 123 c-1 87
-3 109 -8 77 -9 -56 -10 -6 -19 825 -8 645 -8 646 -46 738 -7 16 13 17 331 17
332 0 340 -1 407 -24z m-158 -350 c61 -28 92 -57 114 -105 14 -32 16 -104 19
-616 3 -617 3 -627 -45 -698 -41 -60 -133 -106 -210 -107 l-33 0 0 781 0 782
53 -7 c28 -4 75 -18 102 -30z"/>
<path d="M13543 5070 c-71 -10 -138 -31 -207 -66 -139 -70 -225 -168 -293
-334 -69 -166 -66 -123 -70 -1180 -3 -841 -2 -967 12 -1058 34 -213 92 -340
214 -463 93 -93 160 -133 278 -163 71 -19 194 -21 279 -5 61 11 182 64 244
105 79 54 187 177 238 271 13 24 35 75 50 115 l26 73 4 408 3 407 -316 0
c-349 0 -332 4 -273 -60 54 -57 58 -80 58 -325 0 -197 -2 -231 -17 -256 -23
-38 -87 -69 -145 -69 -38 0 -51 5 -74 30 -61 64 -58 27 -62 953 -3 929 -4 918
55 996 73 95 193 65 230 -57 16 -54 18 -397 3 -437 -6 -15 -26 -47 -46 -71
-20 -24 -33 -48 -29 -54 7 -12 583 -14 603 -2 10 7 11 85 4 403 -9 441 -6 418
-90 544 -85 128 -246 242 -395 279 -76 20 -207 27 -284 16z m262 -84 c221 -60
397 -239 425 -432 5 -38 10 -201 10 -361 l0 -293 -195 0 -194 0 7 33 c4 17 7
127 7 242 0 224 -5 255 -57 328 -49 69 -189 92 -271 44 -55 -32 -104 -123
-117 -217 -5 -36 -10 -226 -10 -422 0 -232 -4 -358 -10 -358 -5 0 -10 18 -10
40 0 71 -17 43 -24 -40 -7 -70 -10 -80 -27 -80 -16 0 -19 7 -19 40 0 22 -3 40
-8 40 -4 0 -6 -18 -4 -40 l4 -40 -96 0 -96 0 -1 -72 c-2 -80 -5 -68 -14 65 -5
60 -11 87 -20 87 -18 0 -23 78 -31 450 -9 428 2 518 79 681 80 170 212 275
392 312 48 11 234 6 280 -7z"/>
<path d="M10914 5045 c-44 -22 -114 -83 -114 -101 0 -3 -9 -19 -20 -34 -16
-23 -34 -31 -97 -45 -107 -24 -117 -31 -63 -45 120 -31 123 -32 140 -88 17
-58 68 -128 119 -163 56 -39 63 -48 56 -83 -9 -42 -19 -49 -100 -70 -198 -50
-340 -204 -381 -411 -40 -205 28 -430 157 -514 27 -17 49 -38 49 -47 0 -8 -20
-39 -45 -70 -25 -30 -45 -59 -45 -64 0 -5 11 -12 25 -16 32 -8 32 -31 0 -93
l-24 -49 22 -6 c12 -3 38 -6 57 -6 54 0 64 -11 56 -61 -8 -51 -41 -199 -62
-282 -8 -31 -12 -62 -9 -67 3 -6 33 -10 65 -10 61 0 90 -15 90 -48 0 -9 7
-151 17 -315 11 -201 13 -301 7 -307 -6 -6 -67 -30 -136 -53 -69 -23 -141 -53
-161 -67 -45 -31 -62 -64 -41 -80 20 -17 89 3 309 89 99 39 192 71 206 71 27
0 203 -108 210 -129 6 -18 79 -40 132 -41 39 0 47 3 47 19 0 22 -60 73 -143
122 -35 20 -60 43 -63 56 -6 24 43 660 52 674 3 5 34 9 70 9 47 0 64 4 64 13
0 8 -18 94 -40 192 -28 131 -36 183 -28 192 6 8 32 13 63 13 86 0 89 4 55 64
-37 65 -38 92 -5 100 32 8 31 12 -5 69 -16 26 -30 54 -30 62 0 8 17 33 38 54
62 65 73 82 116 165 l41 81 0 130 c0 108 -4 142 -23 205 -27 86 -92 189 -156
248 -48 44 -189 116 -249 127 -28 4 -40 13 -48 32 -14 37 -3 59 44 90 54 37
103 102 111 150 12 62 29 79 101 98 97 27 94 35 -20 51 -59 8 -70 15 -95 63
-25 48 -85 108 -131 132 -53 26 -122 24 -185 -6z m369 -984 c57 -64 97 -158
97 -231 0 -89 -51 -202 -116 -259 -68 -60 -69 -58 -72 229 -1 140 0 265 3 278
9 36 47 28 88 -17z m-474 11 c10 -18 5 -431 -5 -499 -12 -81 -100 -5 -143 125
-43 127 -19 260 63 347 46 48 70 56 85 27z"/>
</g>
</svg>
